<?xml version="1.0" encoding="UTF-8" standalone="no"?>
<!DOCTYPE svg PUBLIC "-//W3C//DTD SVG 1.1//EN"
 "http://www.w3.org/Graphics/SVG/1.1/DTD/svg11.dtd">
<!-- Generated by graphviz version 2.38.0 (20140413.2041)
 -->
<!-- Title: controllers_diagram Pages: 1 -->
<svg width="426pt" height="591pt"
 viewBox="0.00 0.00 426.46 591.00" xmlns="http://www.w3.org/2000/svg" xmlns:xlink="http://www.w3.org/1999/xlink">
<g id="graph0" class="graph" transform="scale(1 1) rotate(0) translate(117.688 321.5)">
<title>controllers_diagram</title>
<polygon fill="none" stroke="none" points="-117.688,269.5 -117.688,-321.5 308.776,-321.5 308.776,269.5 -117.688,269.5"/>
<!-- _diagram_info -->
<g id="node1" class="node"><title>_diagram_info</title>
<text text-anchor="start" x="-105.688" y="-211.1" font-family="Times,serif" font-size="13.00">Controllers diagram</text>
<text text-anchor="start" x="-105.688" y="-198.1" font-family="Times,serif" font-size="13.00">Date: Sep 05 2015 &#45; 19:12</text>
<text text-anchor="start" x="-105.688" y="-185.1" font-family="Times,serif" font-size="13.00">Migration version: 20150904070853</text>
<text text-anchor="start" x="-105.688" y="-172.1" font-family="Times,serif" font-size="13.00">Generated by RailRoady 1.3.1</text>
<text text-anchor="start" x="-105.688" y="-159.1" font-family="Times,serif" font-size="13.00">http://railroady.prestonlee.com</text>
</g>
<!-- Api::BaseController -->
<g id="node2" class="node"><title>Api::BaseController</title>
<path fill="none" stroke="black" d="M183.231,265C183.231,265 288.769,265 288.769,265 294.769,265 300.769,259 300.769,253 300.769,253 300.769,185 300.769,185 300.769,179 294.769,173 288.769,173 288.769,173 183.231,173 183.231,173 177.231,173 171.231,179 171.231,185 171.231,185 171.231,253 171.231,253 171.231,259 177.231,265 183.231,265"/>
<text text-anchor="middle" x="236" y="188.2" font-family="Times,serif" font-size="14.00">Api::BaseController</text>
<polyline fill="none" stroke="black" points="171.231,195 300.769,195 "/>
<polyline fill="none" stroke="black" points="171.231,219 300.769,219 "/>
<polyline fill="none" stroke="black" points="171.231,243 300.769,243 "/>
<text text-anchor="start" x="179.231" y="258.2" font-family="Times,serif" font-size="14.00">_layout</text>
</g>
<!-- Api::V1::AlbumsController -->
<g id="node3" class="node"><title>Api::V1::AlbumsController</title>
<path fill="none" stroke="black" d="M145.224,132C145.224,132 292.776,132 292.776,132 298.776,132 304.776,126 304.776,120 304.776,120 304.776,-58 304.776,-58 304.776,-64 298.776,-70 292.776,-70 292.776,-70 145.224,-70 145.224,-70 139.224,-70 133.224,-64 133.224,-58 133.224,-58 133.224,120 133.224,120 133.224,126 139.224,132 145.224,132"/>
<text text-anchor="middle" x="219" y="-54.8" font-family="Times,serif" font-size="14.00">Api::V1::AlbumsController</text>
<polyline fill="none" stroke="black" points="133.224,-48 304.776,-48 "/>
<text text-anchor="start" x="141.224" y="-32.8" font-family="Times,serif" font-size="14.00">apipie_validations</text>
<text text-anchor="start" x="141.224" y="-18.8" font-family="Times,serif" font-size="14.00">create</text>
<text text-anchor="start" x="141.224" y="-4.8" font-family="Times,serif" font-size="14.00">destroy</text>
<text text-anchor="start" x="141.224" y="9.2" font-family="Times,serif" font-size="14.00">index</text>
<text text-anchor="start" x="141.224" y="23.2" font-family="Times,serif" font-size="14.00">search</text>
<text text-anchor="start" x="141.224" y="37.2" font-family="Times,serif" font-size="14.00">show</text>
<text text-anchor="start" x="141.224" y="51.2" font-family="Times,serif" font-size="14.00">update</text>
<polyline fill="none" stroke="black" points="133.224,58 304.776,58 "/>
<polyline fill="none" stroke="black" points="133.224,82 304.776,82 "/>
<text text-anchor="start" x="141.224" y="97.2" font-family="Times,serif" font-size="14.00">_layout</text>
<text text-anchor="start" x="141.224" y="111.2" font-family="Times,serif" font-size="14.00">album_params</text>
<text text-anchor="start" x="141.224" y="125.2" font-family="Times,serif" font-size="14.00">set_album</text>
</g>
<!-- Api::V1::ArtistsController -->
<g id="node4" class="node"><title>Api::V1::ArtistsController</title>
<path fill="none" stroke="black" d="M144.724,-115C144.724,-115 285.276,-115 285.276,-115 291.276,-115 297.276,-121 297.276,-127 297.276,-127 297.276,-305 297.276,-305 297.276,-311 291.276,-317 285.276,-317 285.276,-317 144.724,-317 144.724,-317 138.724,-317 132.724,-311 132.724,-305 132.724,-305 132.724,-127 132.724,-127 132.724,-121 138.724,-115 144.724,-115"/>
<text text-anchor="middle" x="215" y="-301.8" font-family="Times,serif" font-size="14.00">Api::V1::ArtistsController</text>
<polyline fill="none" stroke="black" points="132.724,-295 297.276,-295 "/>
<text text-anchor="start" x="140.724" y="-279.8" font-family="Times,serif" font-size="14.00">apipie_validations</text>
<text text-anchor="start" x="140.724" y="-265.8" font-family="Times,serif" font-size="14.00">create</text>
<text text-anchor="start" x="140.724" y="-251.8" font-family="Times,serif" font-size="14.00">destroy</text>
<text text-anchor="start" x="140.724" y="-237.8" font-family="Times,serif" font-size="14.00">index</text>
<text text-anchor="start" x="140.724" y="-223.8" font-family="Times,serif" font-size="14.00">search</text>
<text text-anchor="start" x="140.724" y="-209.8" font-family="Times,serif" font-size="14.00">show</text>
<text text-anchor="start" x="140.724" y="-195.8" font-family="Times,serif" font-size="14.00">update</text>
<polyline fill="none" stroke="black" points="132.724,-189 297.276,-189 "/>
<polyline fill="none" stroke="black" points="132.724,-165 297.276,-165 "/>
<text text-anchor="start" x="140.724" y="-149.8" font-family="Times,serif" font-size="14.00">_layout</text>
<text text-anchor="start" x="140.724" y="-135.8" font-family="Times,serif" font-size="14.00">artist_params</text>
<text text-anchor="start" x="140.724" y="-121.8" font-family="Times,serif" font-size="14.00">set_artist</text>
</g>
<!-- Api::V1::TracksController -->
<g id="node5" class="node"><title>Api::V1::TracksController</title>
<path fill="none" stroke="black" d="M-82.7485,132C-82.7485,132 78.7485,132 78.7485,132 84.7485,132 90.7485,126 90.7485,120 90.7485,120 90.7485,-100 90.7485,-100 90.7485,-106 84.7485,-112 78.7485,-112 78.7485,-112 -82.7485,-112 -82.7485,-112 -88.7485,-112 -94.7485,-106 -94.7485,-100 -94.7485,-100 -94.7485,120 -94.7485,120 -94.7485,126 -88.7485,132 -82.7485,132"/>
<text text-anchor="middle" x="-2" y="-96.8" font-family="Times,serif" font-size="14.00">Api::V1::TracksController</text>
<polyline fill="none" stroke="black" points="-94.7485,-90 90.7485,-90 "/>
<text text-anchor="start" x="-86.7485" y="-74.8" font-family="Times,serif" font-size="14.00">apipie_validations</text>
<text text-anchor="start" x="-86.7485" y="-60.8" font-family="Times,serif" font-size="14.00">create</text>
<text text-anchor="start" x="-86.7485" y="-46.8" font-family="Times,serif" font-size="14.00">create_with_album_and_artist</text>
<text text-anchor="start" x="-86.7485" y="-32.8" font-family="Times,serif" font-size="14.00">destroy</text>
<text text-anchor="start" x="-86.7485" y="-18.8" font-family="Times,serif" font-size="14.00">index</text>
<text text-anchor="start" x="-86.7485" y="-4.8" font-family="Times,serif" font-size="14.00">search</text>
<text text-anchor="start" x="-86.7485" y="9.2" font-family="Times,serif" font-size="14.00">show</text>
<text text-anchor="start" x="-86.7485" y="23.2" font-family="Times,serif" font-size="14.00">update</text>
<polyline fill="none" stroke="black" points="-94.7485,30 90.7485,30 "/>
<polyline fill="none" stroke="black" points="-94.7485,54 90.7485,54 "/>
<text text-anchor="start" x="-86.7485" y="69.2" font-family="Times,serif" font-size="14.00">_layout</text>
<text text-anchor="start" x="-86.7485" y="83.2" font-family="Times,serif" font-size="14.00">find_albums</text>
<text text-anchor="start" x="-86.7485" y="97.2" font-family="Times,serif" font-size="14.00">find_artists</text>
<text text-anchor="start" x="-86.7485" y="111.2" font-family="Times,serif" font-size="14.00">set_track</text>
<text text-anchor="start" x="-86.7485" y="125.2" font-family="Times,serif" font-size="14.00">track_params</text>
</g>
<!-- ApplicationController -->
<g id="node6" class="node"><title>ApplicationController</title>
<path fill="none" stroke="black" d="M12.1792,265C12.1792,265 127.821,265 127.821,265 133.821,265 139.821,259 139.821,253 139.821,253 139.821,185 139.821,185 139.821,179 133.821,173 127.821,173 127.821,173 12.1792,173 12.1792,173 6.1792,173 0.179199,179 0.179199,185 0.179199,185 0.179199,253 0.179199,253 0.179199,259 6.1792,265 12.1792,265"/>
<text text-anchor="middle" x="70" y="188.2" font-family="Times,serif" font-size="14.00">ApplicationController</text>
<polyline fill="none" stroke="black" points="0.179199,195 139.821,195 "/>
<polyline fill="none" stroke="black" points="0.179199,219 139.821,219 "/>
<polyline fill="none" stroke="black" points="0.179199,243 139.821,243 "/>
<text text-anchor="start" x="8.1792" y="258.2" font-family="Times,serif" font-size="14.00">_layout</text>
</g>
</g>
</svg>
