<?xml version="1.0" encoding="UTF-8" standalone="no"?>
<!DOCTYPE svg PUBLIC "-//W3C//DTD SVG 1.1//EN"
 "http://www.w3.org/Graphics/SVG/1.1/DTD/svg11.dtd">
<!-- Generated by graphviz version 2.38.0 (20140413.2041)
 -->
<!-- Title: controllers_diagram Pages: 1 -->
<svg width="443pt" height="506pt"
 viewBox="0.00 0.00 443.46 506.00" xmlns="http://www.w3.org/2000/svg" xmlns:xlink="http://www.w3.org/1999/xlink">
<g id="graph0" class="graph" transform="scale(1 1) rotate(0) translate(139.688 281.5)">
<title>controllers_diagram</title>
<polygon fill="none" stroke="none" points="-139.688,224.5 -139.688,-281.5 303.769,-281.5 303.769,224.5 -139.688,224.5"/>
<!-- _diagram_info -->
<g id="node1" class="node"><title>_diagram_info</title>
<text text-anchor="start" x="-127.688" y="-195.1" font-family="Times,serif" font-size="13.00">Controllers diagram</text>
<text text-anchor="start" x="-127.688" y="-182.1" font-family="Times,serif" font-size="13.00">Date: Sep 04 2015 &#45; 14:59</text>
<text text-anchor="start" x="-127.688" y="-169.1" font-family="Times,serif" font-size="13.00">Migration version: 20150904070853</text>
<text text-anchor="start" x="-127.688" y="-156.1" font-family="Times,serif" font-size="13.00">Generated by RailRoady 1.3.1</text>
<text text-anchor="start" x="-127.688" y="-143.1" font-family="Times,serif" font-size="13.00">http://railroady.prestonlee.com</text>
</g>
<!-- Api::BaseController -->
<g id="node2" class="node"><title>Api::BaseController</title>
<path fill="none" stroke="black" d="M182.231,220C182.231,220 287.769,220 287.769,220 293.769,220 299.769,214 299.769,208 299.769,208 299.769,140 299.769,140 299.769,134 293.769,128 287.769,128 287.769,128 182.231,128 182.231,128 176.231,128 170.231,134 170.231,140 170.231,140 170.231,208 170.231,208 170.231,214 176.231,220 182.231,220"/>
<text text-anchor="middle" x="235" y="143.2" font-family="Times,serif" font-size="14.00">Api::BaseController</text>
<polyline fill="none" stroke="black" points="170.231,150 299.769,150 "/>
<polyline fill="none" stroke="black" points="170.231,174 299.769,174 "/>
<polyline fill="none" stroke="black" points="170.231,198 299.769,198 "/>
<text text-anchor="start" x="178.231" y="213.2" font-family="Times,serif" font-size="14.00">_layout</text>
</g>
<!-- Api::V1::AlbumsController -->
<g id="node3" class="node"><title>Api::V1::AlbumsController</title>
<path fill="none" stroke="black" d="M-89.7759,101C-89.7759,101 57.7759,101 57.7759,101 63.7759,101 69.7759,95 69.7759,89 69.7759,89 69.7759,-61 69.7759,-61 69.7759,-67 63.7759,-73 57.7759,-73 57.7759,-73 -89.7759,-73 -89.7759,-73 -95.7759,-73 -101.776,-67 -101.776,-61 -101.776,-61 -101.776,89 -101.776,89 -101.776,95 -95.7759,101 -89.7759,101"/>
<text text-anchor="middle" x="-16" y="-57.8" font-family="Times,serif" font-size="14.00">Api::V1::AlbumsController</text>
<polyline fill="none" stroke="black" points="-101.776,-51 69.7759,-51 "/>
<text text-anchor="start" x="-93.7759" y="-35.8" font-family="Times,serif" font-size="14.00">create</text>
<text text-anchor="start" x="-93.7759" y="-21.8" font-family="Times,serif" font-size="14.00">destroy</text>
<text text-anchor="start" x="-93.7759" y="-7.8" font-family="Times,serif" font-size="14.00">index</text>
<text text-anchor="start" x="-93.7759" y="6.2" font-family="Times,serif" font-size="14.00">show</text>
<text text-anchor="start" x="-93.7759" y="20.2" font-family="Times,serif" font-size="14.00">update</text>
<polyline fill="none" stroke="black" points="-101.776,27 69.7759,27 "/>
<polyline fill="none" stroke="black" points="-101.776,51 69.7759,51 "/>
<text text-anchor="start" x="-93.7759" y="66.2" font-family="Times,serif" font-size="14.00">_layout</text>
<text text-anchor="start" x="-93.7759" y="80.2" font-family="Times,serif" font-size="14.00">album_params</text>
<text text-anchor="start" x="-93.7759" y="94.2" font-family="Times,serif" font-size="14.00">set_album</text>
</g>
<!-- Api::V1::ArtistsController -->
<g id="node4" class="node"><title>Api::V1::ArtistsController</title>
<path fill="none" stroke="black" d="M113.724,101C113.724,101 254.276,101 254.276,101 260.276,101 266.276,95 266.276,89 266.276,89 266.276,-61 266.276,-61 266.276,-67 260.276,-73 254.276,-73 254.276,-73 113.724,-73 113.724,-73 107.724,-73 101.724,-67 101.724,-61 101.724,-61 101.724,89 101.724,89 101.724,95 107.724,101 113.724,101"/>
<text text-anchor="middle" x="184" y="-57.8" font-family="Times,serif" font-size="14.00">Api::V1::ArtistsController</text>
<polyline fill="none" stroke="black" points="101.724,-51 266.276,-51 "/>
<text text-anchor="start" x="109.724" y="-35.8" font-family="Times,serif" font-size="14.00">create</text>
<text text-anchor="start" x="109.724" y="-21.8" font-family="Times,serif" font-size="14.00">destroy</text>
<text text-anchor="start" x="109.724" y="-7.8" font-family="Times,serif" font-size="14.00">index</text>
<text text-anchor="start" x="109.724" y="6.2" font-family="Times,serif" font-size="14.00">show</text>
<text text-anchor="start" x="109.724" y="20.2" font-family="Times,serif" font-size="14.00">update</text>
<polyline fill="none" stroke="black" points="101.724,27 266.276,27 "/>
<polyline fill="none" stroke="black" points="101.724,51 266.276,51 "/>
<text text-anchor="start" x="109.724" y="66.2" font-family="Times,serif" font-size="14.00">_layout</text>
<text text-anchor="start" x="109.724" y="80.2" font-family="Times,serif" font-size="14.00">artist_params</text>
<text text-anchor="start" x="109.724" y="94.2" font-family="Times,serif" font-size="14.00">set_artist</text>
</g>
<!-- Api::V1::TracksController -->
<g id="node5" class="node"><title>Api::V1::TracksController</title>
<path fill="none" stroke="black" d="M113.591,-103C113.591,-103 254.409,-103 254.409,-103 260.409,-103 266.409,-109 266.409,-115 266.409,-115 266.409,-265 266.409,-265 266.409,-271 260.409,-277 254.409,-277 254.409,-277 113.591,-277 113.591,-277 107.591,-277 101.591,-271 101.591,-265 101.591,-265 101.591,-115 101.591,-115 101.591,-109 107.591,-103 113.591,-103"/>
<text text-anchor="middle" x="184" y="-261.8" font-family="Times,serif" font-size="14.00">Api::V1::TracksController</text>
<polyline fill="none" stroke="black" points="101.591,-255 266.409,-255 "/>
<text text-anchor="start" x="109.591" y="-239.8" font-family="Times,serif" font-size="14.00">create</text>
<text text-anchor="start" x="109.591" y="-225.8" font-family="Times,serif" font-size="14.00">destroy</text>
<text text-anchor="start" x="109.591" y="-211.8" font-family="Times,serif" font-size="14.00">index</text>
<text text-anchor="start" x="109.591" y="-197.8" font-family="Times,serif" font-size="14.00">show</text>
<text text-anchor="start" x="109.591" y="-183.8" font-family="Times,serif" font-size="14.00">update</text>
<polyline fill="none" stroke="black" points="101.591,-177 266.409,-177 "/>
<polyline fill="none" stroke="black" points="101.591,-153 266.409,-153 "/>
<text text-anchor="start" x="109.591" y="-137.8" font-family="Times,serif" font-size="14.00">_layout</text>
<text text-anchor="start" x="109.591" y="-123.8" font-family="Times,serif" font-size="14.00">set_track</text>
<text text-anchor="start" x="109.591" y="-109.8" font-family="Times,serif" font-size="14.00">track_params</text>
</g>
<!-- ApplicationController -->
<g id="node6" class="node"><title>ApplicationController</title>
<path fill="none" stroke="black" d="M12.1792,220C12.1792,220 127.821,220 127.821,220 133.821,220 139.821,214 139.821,208 139.821,208 139.821,140 139.821,140 139.821,134 133.821,128 127.821,128 127.821,128 12.1792,128 12.1792,128 6.1792,128 0.179199,134 0.179199,140 0.179199,140 0.179199,208 0.179199,208 0.179199,214 6.1792,220 12.1792,220"/>
<text text-anchor="middle" x="70" y="143.2" font-family="Times,serif" font-size="14.00">ApplicationController</text>
<polyline fill="none" stroke="black" points="0.179199,150 139.821,150 "/>
<polyline fill="none" stroke="black" points="0.179199,174 139.821,174 "/>
<polyline fill="none" stroke="black" points="0.179199,198 139.821,198 "/>
<text text-anchor="start" x="8.1792" y="213.2" font-family="Times,serif" font-size="14.00">_layout</text>
</g>
</g>
</svg>
