<?xml version="1.0" encoding="UTF-8" standalone="no"?>
<!DOCTYPE svg PUBLIC "-//W3C//DTD SVG 1.1//EN"
 "http://www.w3.org/Graphics/SVG/1.1/DTD/svg11.dtd">
<!-- Generated by graphviz version 2.38.0 (20140413.2041)
 -->
<!-- Title: models_diagram Pages: 1 -->
<svg width="393pt" height="297pt"
 viewBox="0.00 0.00 393.25 297.00" xmlns="http://www.w3.org/2000/svg" xmlns:xlink="http://www.w3.org/1999/xlink">
<g id="graph0" class="graph" transform="scale(1 1) rotate(0) translate(4 293)">
<title>models_diagram</title>
<polygon fill="none" stroke="none" points="-4,4 -4,-293 389.251,-293 389.251,4 -4,4"/>
<!-- _diagram_info -->
<g id="node1" class="node"><title>_diagram_info</title>
<text text-anchor="start" x="8" y="-274.6" font-family="Times,serif" font-size="13.00">Models diagram</text>
<text text-anchor="start" x="8" y="-261.6" font-family="Times,serif" font-size="13.00">Date: Sep 04 2015 &#45; 14:59</text>
<text text-anchor="start" x="8" y="-248.6" font-family="Times,serif" font-size="13.00">Migration version: 20150904070853</text>
<text text-anchor="start" x="8" y="-235.6" font-family="Times,serif" font-size="13.00">Generated by RailRoady 1.3.1</text>
<text text-anchor="start" x="8" y="-222.6" font-family="Times,serif" font-size="13.00">http://railroady.prestonlee.com</text>
</g>
<!-- Album -->
<g id="node2" class="node"><title>Album</title>
<ellipse fill="none" stroke="black" cx="259.688" cy="-252.5" rx="34.8458" ry="18"/>
<text text-anchor="middle" x="259.688" y="-248.3" font-family="Times,serif" font-size="14.00">Album</text>
</g>
<!-- AlbumTrack -->
<g id="node3" class="node"><title>AlbumTrack</title>
<ellipse fill="none" stroke="black" cx="210.688" cy="-18" rx="54.9696" ry="18"/>
<text text-anchor="middle" x="210.688" y="-13.8" font-family="Times,serif" font-size="14.00">AlbumTrack</text>
</g>
<!-- Album&#45;&gt;AlbumTrack -->
<g id="edge1" class="edge"><title>Album&#45;&gt;AlbumTrack</title>
<path fill="none" stroke="#5f570d" d="M254.41,-226.456C245.133,-182.441 225.984,-91.5776 216.405,-46.1289"/>
<ellipse fill="none" stroke="#5f570d" cx="255.26" cy="-230.49" rx="4.00001" ry="4.00001"/>
<polygon fill="#5f570d" stroke="#5f570d" points="216.358,-45.9064 218.699,-35.1933 215.327,-41.0139 214.296,-36.1213 214.296,-36.1213 214.296,-36.1213 215.327,-41.0139 209.893,-37.0494 216.358,-45.9064 216.358,-45.9064"/>
</g>
<!-- Artist -->
<g id="node4" class="node"><title>Artist</title>
<ellipse fill="none" stroke="black" cx="317.688" cy="-162" rx="30.0035" ry="18"/>
<text text-anchor="middle" x="317.688" y="-157.8" font-family="Times,serif" font-size="14.00">Artist</text>
</g>
<!-- Album&#45;&gt;Artist -->
<g id="edge3" class="edge"><title>Album&#45;&gt;Artist</title>
<path fill="none" stroke="#0ea8ba" d="M275.866,-226.814C283.905,-214.547 293.59,-199.77 301.615,-187.525"/>
<polygon fill="#0ea8ba" stroke="#0ea8ba" points="275.807,-226.904 266.562,-232.801 273.067,-231.086 270.326,-235.268 270.326,-235.268 270.326,-235.268 273.067,-231.086 274.09,-237.734 275.807,-226.904 275.807,-226.904"/>
<polygon fill="#0ea8ba" stroke="#0ea8ba" points="301.636,-187.493 310.881,-181.596 304.376,-183.311 307.117,-179.129 307.117,-179.129 307.117,-179.129 304.376,-183.311 303.353,-176.663 301.636,-187.493 301.636,-187.493"/>
</g>
<!-- Track -->
<g id="node5" class="node"><title>Track</title>
<ellipse fill="none" stroke="black" cx="273.688" cy="-90" rx="30.3385" ry="18"/>
<text text-anchor="middle" x="273.688" y="-85.8" font-family="Times,serif" font-size="14.00">Track</text>
</g>
<!-- Album&#45;&gt;Track -->
<g id="edge2" class="edge"><title>Album&#45;&gt;Track</title>
<path fill="none" stroke="#66242f" d="M262.092,-223.94C264.677,-194.303 268.761,-147.485 271.328,-118.048"/>
<polygon fill="#66242f" stroke="#66242f" points="262.055,-224.362 256.703,-233.933 261.621,-229.343 261.186,-234.324 261.186,-234.324 261.186,-234.324 261.621,-229.343 265.669,-234.715 262.055,-224.362 262.055,-224.362"/>
<polygon fill="#66242f" stroke="#66242f" points="271.331,-118.015 276.683,-108.444 271.766,-113.034 272.2,-108.053 272.2,-108.053 272.2,-108.053 271.766,-113.034 267.717,-107.662 271.331,-118.015 271.331,-118.015"/>
</g>
<!-- Artist&#45;&gt;Track -->
<g id="edge5" class="edge"><title>Artist&#45;&gt;Track</title>
<path fill="none" stroke="#c95a74" d="M302.16,-136.298C297.979,-129.645 293.454,-122.447 289.269,-115.789"/>
<polygon fill="#c95a74" stroke="#c95a74" points="302.161,-136.298 303.673,-147.159 304.822,-140.531 307.483,-144.765 307.483,-144.765 307.483,-144.765 304.822,-140.531 311.293,-142.37 302.161,-136.298 302.161,-136.298"/>
<polygon fill="#c95a74" stroke="#c95a74" points="289.159,-115.614 287.647,-104.753 286.498,-111.38 283.837,-107.147 283.837,-107.147 283.837,-107.147 286.498,-111.38 280.028,-109.542 289.159,-115.614 289.159,-115.614"/>
</g>
<!-- TrackArtist -->
<g id="node6" class="node"><title>TrackArtist</title>
<ellipse fill="none" stroke="black" cx="334.688" cy="-18" rx="50.6263" ry="18"/>
<text text-anchor="middle" x="334.688" y="-13.8" font-family="Times,serif" font-size="14.00">TrackArtist</text>
</g>
<!-- Artist&#45;&gt;TrackArtist -->
<g id="edge4" class="edge"><title>Artist&#45;&gt;TrackArtist</title>
<path fill="none" stroke="#8fc355" d="M320.734,-135.558C323.74,-110.444 328.323,-72.164 331.408,-46.3932"/>
<ellipse fill="none" stroke="#8fc355" cx="320.214" cy="-139.9" rx="4.00001" ry="4.00001"/>
<polygon fill="#8fc355" stroke="#8fc355" points="331.441,-46.1184 337.098,-36.7242 332.035,-41.1538 332.63,-36.1893 332.63,-36.1893 332.63,-36.1893 332.035,-41.1538 328.162,-35.6543 331.441,-46.1184 331.441,-46.1184"/>
</g>
<!-- Track&#45;&gt;AlbumTrack -->
<g id="edge6" class="edge"><title>Track&#45;&gt;AlbumTrack</title>
<path fill="none" stroke="#a6f2b5" d="M254.503,-67.684C247.556,-59.9642 239.659,-51.1902 232.501,-43.2374"/>
<ellipse fill="none" stroke="#a6f2b5" cx="257.342" cy="-70.8379" rx="4.00002" ry="4.00002"/>
<polygon fill="#a6f2b5" stroke="#a6f2b5" points="232.342,-43.0608 228.998,-32.6175 228.998,-39.3443 225.653,-35.6278 225.653,-35.6278 225.653,-35.6278 228.998,-39.3443 222.308,-38.6382 232.342,-43.0608 232.342,-43.0608"/>
</g>
<!-- Track&#45;&gt;TrackArtist -->
<g id="edge7" class="edge"><title>Track&#45;&gt;TrackArtist</title>
<path fill="none" stroke="#cb0cfd" d="M292.564,-67.3382C299.281,-59.6307 306.882,-50.9083 313.76,-43.0154"/>
<ellipse fill="none" stroke="#cb0cfd" cx="289.854" cy="-70.4491" rx="4.00002" ry="4.00002"/>
<polygon fill="#cb0cfd" stroke="#cb0cfd" points="313.768,-43.0063 323.73,-38.4236 317.053,-39.2367 320.338,-35.4672 320.338,-35.4672 320.338,-35.4672 317.053,-39.2367 316.945,-32.5108 313.768,-43.0063 313.768,-43.0063"/>
</g>
</g>
</svg>
