<?xml version="1.0" encoding="UTF-8" standalone="no"?>
<!DOCTYPE svg PUBLIC "-//W3C//DTD SVG 1.1//EN"
 "http://www.w3.org/Graphics/SVG/1.1/DTD/svg11.dtd">
<!-- Generated by graphviz version 2.38.0 (20140413.2041)
 -->
<!-- Title: models_diagram Pages: 1 -->
<svg width="480pt" height="548pt"
 viewBox="0.00 0.00 480.19 548.00" xmlns="http://www.w3.org/2000/svg" xmlns:xlink="http://www.w3.org/1999/xlink">
<g id="graph0" class="graph" transform="scale(1 1) rotate(0) translate(4 544)">
<title>models_diagram</title>
<polygon fill="none" stroke="none" points="-4,4 -4,-544 476.193,-544 476.193,4 -4,4"/>
<!-- _diagram_info -->
<g id="node1" class="node"><title>_diagram_info</title>
<text text-anchor="start" x="8" y="-511.6" font-family="Times,serif" font-size="13.00">Models diagram</text>
<text text-anchor="start" x="8" y="-498.6" font-family="Times,serif" font-size="13.00">Date: Sep 05 2015 &#45; 19:12</text>
<text text-anchor="start" x="8" y="-485.6" font-family="Times,serif" font-size="13.00">Migration version: 20150904070853</text>
<text text-anchor="start" x="8" y="-472.6" font-family="Times,serif" font-size="13.00">Generated by RailRoady 1.3.1</text>
<text text-anchor="start" x="8" y="-459.6" font-family="Times,serif" font-size="13.00">http://railroady.prestonlee.com</text>
</g>
<!-- Album -->
<g id="node2" class="node"><title>Album</title>
<path fill="none" stroke="black" d="M237.182,-439.5C237.182,-439.5 346.193,-439.5 346.193,-439.5 352.193,-439.5 358.193,-445.5 358.193,-451.5 358.193,-451.5 358.193,-527.5 358.193,-527.5 358.193,-533.5 352.193,-539.5 346.193,-539.5 346.193,-539.5 237.182,-539.5 237.182,-539.5 231.182,-539.5 225.182,-533.5 225.182,-527.5 225.182,-527.5 225.182,-451.5 225.182,-451.5 225.182,-445.5 231.182,-439.5 237.182,-439.5"/>
<text text-anchor="middle" x="291.688" y="-524.3" font-family="Times,serif" font-size="14.00">Album</text>
<polyline fill="none" stroke="black" points="225.182,-517.5 358.193,-517.5 "/>
<text text-anchor="start" x="233.182" y="-502.3" font-family="Times,serif" font-size="14.00">id :integer</text>
<text text-anchor="start" x="233.182" y="-488.3" font-family="Times,serif" font-size="14.00">title :string</text>
<text text-anchor="start" x="233.182" y="-474.3" font-family="Times,serif" font-size="14.00">year :integer</text>
<text text-anchor="start" x="233.182" y="-460.3" font-family="Times,serif" font-size="14.00">created_at :datetime</text>
<text text-anchor="start" x="233.182" y="-446.3" font-family="Times,serif" font-size="14.00">updated_at :datetime</text>
</g>
<!-- AlbumTrack -->
<g id="node3" class="node"><title>AlbumTrack</title>
<path fill="none" stroke="black" d="M190.182,-0.5C190.182,-0.5 299.193,-0.5 299.193,-0.5 305.193,-0.5 311.193,-6.5 311.193,-12.5 311.193,-12.5 311.193,-88.5 311.193,-88.5 311.193,-94.5 305.193,-100.5 299.193,-100.5 299.193,-100.5 190.182,-100.5 190.182,-100.5 184.182,-100.5 178.182,-94.5 178.182,-88.5 178.182,-88.5 178.182,-12.5 178.182,-12.5 178.182,-6.5 184.182,-0.5 190.182,-0.5"/>
<text text-anchor="middle" x="244.688" y="-85.3" font-family="Times,serif" font-size="14.00">AlbumTrack</text>
<polyline fill="none" stroke="black" points="178.182,-78.5 311.193,-78.5 "/>
<text text-anchor="start" x="186.182" y="-63.3" font-family="Times,serif" font-size="14.00">id :integer</text>
<text text-anchor="start" x="186.182" y="-49.3" font-family="Times,serif" font-size="14.00">album_id :integer</text>
<text text-anchor="start" x="186.182" y="-35.3" font-family="Times,serif" font-size="14.00">track_id :integer</text>
<text text-anchor="start" x="186.182" y="-21.3" font-family="Times,serif" font-size="14.00">created_at :datetime</text>
<text text-anchor="start" x="186.182" y="-7.3" font-family="Times,serif" font-size="14.00">updated_at :datetime</text>
</g>
<!-- Album&#45;&gt;AlbumTrack -->
<g id="edge1" class="edge"><title>Album&#45;&gt;AlbumTrack</title>
<path fill="none" stroke="#fc18cd" d="M276.986,-431.06C265.598,-383.457 250.772,-313.83 244.688,-252 240.031,-204.677 240.344,-150.765 241.649,-110.773"/>
<ellipse fill="none" stroke="#fc18cd" cx="277.987" cy="-435.206" rx="4.00001" ry="4.00001"/>
<polygon fill="#fc18cd" stroke="#fc18cd" points="241.653,-110.653 246.507,-100.819 241.832,-105.656 242.01,-100.659 242.01,-100.659 242.01,-100.659 241.832,-105.656 237.513,-100.499 241.653,-110.653 241.653,-110.653"/>
</g>
<!-- Artist -->
<g id="node4" class="node"><title>Artist</title>
<path fill="none" stroke="black" d="M332.182,-288.5C332.182,-288.5 441.193,-288.5 441.193,-288.5 447.193,-288.5 453.193,-294.5 453.193,-300.5 453.193,-300.5 453.193,-390.5 453.193,-390.5 453.193,-396.5 447.193,-402.5 441.193,-402.5 441.193,-402.5 332.182,-402.5 332.182,-402.5 326.182,-402.5 320.182,-396.5 320.182,-390.5 320.182,-390.5 320.182,-300.5 320.182,-300.5 320.182,-294.5 326.182,-288.5 332.182,-288.5"/>
<text text-anchor="middle" x="386.688" y="-387.3" font-family="Times,serif" font-size="14.00">Artist</text>
<polyline fill="none" stroke="black" points="320.182,-380.5 453.193,-380.5 "/>
<text text-anchor="start" x="328.182" y="-365.3" font-family="Times,serif" font-size="14.00">id :integer</text>
<text text-anchor="start" x="328.182" y="-351.3" font-family="Times,serif" font-size="14.00">firstname :string</text>
<text text-anchor="start" x="328.182" y="-337.3" font-family="Times,serif" font-size="14.00">lastname :string</text>
<text text-anchor="start" x="328.182" y="-323.3" font-family="Times,serif" font-size="14.00">aka :string</text>
<text text-anchor="start" x="328.182" y="-309.3" font-family="Times,serif" font-size="14.00">created_at :datetime</text>
<text text-anchor="start" x="328.182" y="-295.3" font-family="Times,serif" font-size="14.00">updated_at :datetime</text>
</g>
<!-- Album&#45;&gt;Artist -->
<g id="edge3" class="edge"><title>Album&#45;&gt;Artist</title>
<path fill="none" stroke="#1f0e16" d="M330.232,-430.886C334.467,-424.557 338.799,-418.081 343.089,-411.669"/>
<polygon fill="#1f0e16" stroke="#1f0e16" points="330.208,-430.922 320.907,-436.732 327.428,-435.078 324.648,-439.234 324.648,-439.234 324.648,-439.234 327.428,-435.078 328.388,-441.736 330.208,-430.922 330.208,-430.922"/>
<polygon fill="#1f0e16" stroke="#1f0e16" points="343.339,-411.295 352.639,-405.486 346.119,-407.14 348.899,-402.984 348.899,-402.984 348.899,-402.984 346.119,-407.14 345.159,-400.482 343.339,-411.295 343.339,-411.295"/>
</g>
<!-- Track -->
<g id="node5" class="node"><title>Track</title>
<path fill="none" stroke="black" d="M266.182,-137.5C266.182,-137.5 375.193,-137.5 375.193,-137.5 381.193,-137.5 387.193,-143.5 387.193,-149.5 387.193,-149.5 387.193,-239.5 387.193,-239.5 387.193,-245.5 381.193,-251.5 375.193,-251.5 375.193,-251.5 266.182,-251.5 266.182,-251.5 260.182,-251.5 254.182,-245.5 254.182,-239.5 254.182,-239.5 254.182,-149.5 254.182,-149.5 254.182,-143.5 260.182,-137.5 266.182,-137.5"/>
<text text-anchor="middle" x="320.688" y="-236.3" font-family="Times,serif" font-size="14.00">Track</text>
<polyline fill="none" stroke="black" points="254.182,-229.5 387.193,-229.5 "/>
<text text-anchor="start" x="262.182" y="-214.3" font-family="Times,serif" font-size="14.00">id :integer</text>
<text text-anchor="start" x="262.182" y="-200.3" font-family="Times,serif" font-size="14.00">title :string</text>
<text text-anchor="start" x="262.182" y="-186.3" font-family="Times,serif" font-size="14.00">year :integer</text>
<text text-anchor="start" x="262.182" y="-172.3" font-family="Times,serif" font-size="14.00">genre :string</text>
<text text-anchor="start" x="262.182" y="-158.3" font-family="Times,serif" font-size="14.00">created_at :datetime</text>
<text text-anchor="start" x="262.182" y="-144.3" font-family="Times,serif" font-size="14.00">updated_at :datetime</text>
</g>
<!-- Album&#45;&gt;Track -->
<g id="edge2" class="edge"><title>Album&#45;&gt;Track</title>
<path fill="none" stroke="#a466d8" d="M297.086,-429.356C300.781,-389.419 305.868,-335.521 310.688,-288 311.543,-279.568 312.468,-270.707 313.398,-261.947"/>
<polygon fill="#a466d8" stroke="#a466d8" points="297.073,-429.497 291.672,-439.041 296.613,-434.476 296.153,-439.455 296.153,-439.455 296.153,-439.455 296.613,-434.476 300.634,-439.869 297.073,-429.497 297.073,-429.497"/>
<polygon fill="#a466d8" stroke="#a466d8" points="313.425,-261.684 318.962,-252.219 313.957,-256.713 314.488,-251.741 314.488,-251.741 314.488,-251.741 313.957,-256.713 310.013,-251.263 313.425,-261.684 313.425,-261.684"/>
</g>
<!-- Artist&#45;&gt;Track -->
<g id="edge5" class="edge"><title>Artist&#45;&gt;Track</title>
<path fill="none" stroke="#727d78" d="M357.622,-278.883C355.008,-272.981 352.36,-267.003 349.746,-261.101"/>
<polygon fill="#727d78" stroke="#727d78" points="357.686,-279.026 357.622,-289.992 359.711,-283.598 361.736,-288.169 361.736,-288.169 361.736,-288.169 359.711,-283.598 365.85,-286.347 357.686,-279.026 357.686,-279.026"/>
<polygon fill="#727d78" stroke="#727d78" points="349.725,-261.053 349.789,-250.088 347.7,-256.482 345.675,-251.91 345.675,-251.91 345.675,-251.91 347.7,-256.482 341.56,-253.733 349.725,-261.053 349.725,-261.053"/>
</g>
<!-- TrackArtist -->
<g id="node6" class="node"><title>TrackArtist</title>
<path fill="none" stroke="black" d="M351.182,-0.5C351.182,-0.5 460.193,-0.5 460.193,-0.5 466.193,-0.5 472.193,-6.5 472.193,-12.5 472.193,-12.5 472.193,-88.5 472.193,-88.5 472.193,-94.5 466.193,-100.5 460.193,-100.5 460.193,-100.5 351.182,-100.5 351.182,-100.5 345.182,-100.5 339.182,-94.5 339.182,-88.5 339.182,-88.5 339.182,-12.5 339.182,-12.5 339.182,-6.5 345.182,-0.5 351.182,-0.5"/>
<text text-anchor="middle" x="405.688" y="-85.3" font-family="Times,serif" font-size="14.00">TrackArtist</text>
<polyline fill="none" stroke="black" points="339.182,-78.5 472.193,-78.5 "/>
<text text-anchor="start" x="347.182" y="-63.3" font-family="Times,serif" font-size="14.00">id :integer</text>
<text text-anchor="start" x="347.182" y="-49.3" font-family="Times,serif" font-size="14.00">track_id :integer</text>
<text text-anchor="start" x="347.182" y="-35.3" font-family="Times,serif" font-size="14.00">artist_id :integer</text>
<text text-anchor="start" x="347.182" y="-21.3" font-family="Times,serif" font-size="14.00">created_at :datetime</text>
<text text-anchor="start" x="347.182" y="-7.3" font-family="Times,serif" font-size="14.00">updated_at :datetime</text>
</g>
<!-- Artist&#45;&gt;TrackArtist -->
<g id="edge4" class="edge"><title>Artist&#45;&gt;TrackArtist</title>
<path fill="none" stroke="#d16698" d="M394.176,-280.087C395.118,-270.675 395.993,-261.093 396.688,-252 400.315,-204.538 402.634,-150.637 404.008,-110.683"/>
<ellipse fill="none" stroke="#d16698" cx="393.743" cy="-284.32" rx="4" ry="4"/>
<polygon fill="#d16698" stroke="#d16698" points="404.011,-110.574 408.843,-100.73 404.178,-105.577 404.345,-100.58 404.345,-100.58 404.345,-100.58 404.178,-105.577 399.848,-100.429 404.011,-110.574 404.011,-110.574"/>
</g>
<!-- Track&#45;&gt;AlbumTrack -->
<g id="edge6" class="edge"><title>Track&#45;&gt;AlbumTrack</title>
<path fill="none" stroke="#7bc23d" d="M286.827,-130.234C283.193,-123.445 279.509,-116.56 275.908,-109.832"/>
<ellipse fill="none" stroke="#7bc23d" cx="288.763" cy="-133.851" rx="4.00002" ry="4.00002"/>
<polygon fill="#7bc23d" stroke="#7bc23d" points="275.781,-109.595 275.03,-98.6552 273.422,-105.187 271.062,-100.779 271.062,-100.779 271.062,-100.779 273.422,-105.187 267.095,-102.902 275.781,-109.595 275.781,-109.595"/>
</g>
<!-- Track&#45;&gt;TrackArtist -->
<g id="edge7" class="edge"><title>Track&#45;&gt;TrackArtist</title>
<path fill="none" stroke="#6d783d" d="M358.558,-130.234C362.715,-123.29 366.931,-116.247 371.045,-109.374"/>
<ellipse fill="none" stroke="#6d783d" cx="356.336" cy="-133.946" rx="4.00002" ry="4.00002"/>
<polygon fill="#6d783d" stroke="#6d783d" points="371.054,-109.359 380.051,-103.09 373.622,-105.069 376.19,-100.779 376.19,-100.779 376.19,-100.779 373.622,-105.069 372.329,-98.4674 371.054,-109.359 371.054,-109.359"/>
</g>
</g>
</svg>
