<?xml version="1.0" encoding="UTF-8" standalone="no"?>
<!DOCTYPE svg PUBLIC "-//W3C//DTD SVG 1.1//EN"
 "http://www.w3.org/Graphics/SVG/1.1/DTD/svg11.dtd">
<!-- Generated by graphviz version 2.38.0 (20140413.2041)
 -->
<!-- Title: models_diagram Pages: 1 -->
<svg width="480pt" height="562pt"
 viewBox="0.00 0.00 480.19 562.00" xmlns="http://www.w3.org/2000/svg" xmlns:xlink="http://www.w3.org/1999/xlink">
<g id="graph0" class="graph" transform="scale(1 1) rotate(0) translate(4 558)">
<title>models_diagram</title>
<polygon fill="none" stroke="none" points="-4,4 -4,-558 476.193,-558 476.193,4 -4,4"/>
<!-- _diagram_info -->
<g id="node1" class="node"><title>_diagram_info</title>
<text text-anchor="start" x="8" y="-525.6" font-family="Times,serif" font-size="13.00">Models diagram</text>
<text text-anchor="start" x="8" y="-512.6" font-family="Times,serif" font-size="13.00">Date: Sep 06 2015 &#45; 09:09</text>
<text text-anchor="start" x="8" y="-499.6" font-family="Times,serif" font-size="13.00">Migration version: 20150906065916</text>
<text text-anchor="start" x="8" y="-486.6" font-family="Times,serif" font-size="13.00">Generated by RailRoady 1.3.1</text>
<text text-anchor="start" x="8" y="-473.6" font-family="Times,serif" font-size="13.00">http://railroady.prestonlee.com</text>
</g>
<!-- Album -->
<g id="node2" class="node"><title>Album</title>
<path fill="none" stroke="black" d="M237.182,-453.5C237.182,-453.5 346.193,-453.5 346.193,-453.5 352.193,-453.5 358.193,-459.5 358.193,-465.5 358.193,-465.5 358.193,-541.5 358.193,-541.5 358.193,-547.5 352.193,-553.5 346.193,-553.5 346.193,-553.5 237.182,-553.5 237.182,-553.5 231.182,-553.5 225.182,-547.5 225.182,-541.5 225.182,-541.5 225.182,-465.5 225.182,-465.5 225.182,-459.5 231.182,-453.5 237.182,-453.5"/>
<text text-anchor="middle" x="291.688" y="-538.3" font-family="Times,serif" font-size="14.00">Album</text>
<polyline fill="none" stroke="black" points="225.182,-531.5 358.193,-531.5 "/>
<text text-anchor="start" x="233.182" y="-516.3" font-family="Times,serif" font-size="14.00">id :integer</text>
<text text-anchor="start" x="233.182" y="-502.3" font-family="Times,serif" font-size="14.00">title :string</text>
<text text-anchor="start" x="233.182" y="-488.3" font-family="Times,serif" font-size="14.00">year :integer</text>
<text text-anchor="start" x="233.182" y="-474.3" font-family="Times,serif" font-size="14.00">created_at :datetime</text>
<text text-anchor="start" x="233.182" y="-460.3" font-family="Times,serif" font-size="14.00">updated_at :datetime</text>
</g>
<!-- AlbumTrack -->
<g id="node3" class="node"><title>AlbumTrack</title>
<path fill="none" stroke="black" d="M190.182,-0.5C190.182,-0.5 299.193,-0.5 299.193,-0.5 305.193,-0.5 311.193,-6.5 311.193,-12.5 311.193,-12.5 311.193,-88.5 311.193,-88.5 311.193,-94.5 305.193,-100.5 299.193,-100.5 299.193,-100.5 190.182,-100.5 190.182,-100.5 184.182,-100.5 178.182,-94.5 178.182,-88.5 178.182,-88.5 178.182,-12.5 178.182,-12.5 178.182,-6.5 184.182,-0.5 190.182,-0.5"/>
<text text-anchor="middle" x="244.688" y="-85.3" font-family="Times,serif" font-size="14.00">AlbumTrack</text>
<polyline fill="none" stroke="black" points="178.182,-78.5 311.193,-78.5 "/>
<text text-anchor="start" x="186.182" y="-63.3" font-family="Times,serif" font-size="14.00">id :integer</text>
<text text-anchor="start" x="186.182" y="-49.3" font-family="Times,serif" font-size="14.00">album_id :integer</text>
<text text-anchor="start" x="186.182" y="-35.3" font-family="Times,serif" font-size="14.00">track_id :integer</text>
<text text-anchor="start" x="186.182" y="-21.3" font-family="Times,serif" font-size="14.00">created_at :datetime</text>
<text text-anchor="start" x="186.182" y="-7.3" font-family="Times,serif" font-size="14.00">updated_at :datetime</text>
</g>
<!-- Album&#45;&gt;AlbumTrack -->
<g id="edge1" class="edge"><title>Album&#45;&gt;AlbumTrack</title>
<path fill="none" stroke="#3450d2" d="M276.986,-445.06C265.598,-397.457 250.772,-327.83 244.688,-266 239.539,-213.677 240.069,-153.827 241.581,-110.666"/>
<ellipse fill="none" stroke="#3450d2" cx="277.987" cy="-449.206" rx="4.00001" ry="4.00001"/>
<polygon fill="#3450d2" stroke="#3450d2" points="241.582,-110.612 246.457,-100.789 241.772,-105.616 241.961,-100.619 241.961,-100.619 241.961,-100.619 241.772,-105.616 237.464,-100.449 241.582,-110.612 241.582,-110.612"/>
</g>
<!-- Artist -->
<g id="node4" class="node"><title>Artist</title>
<path fill="none" stroke="black" d="M332.182,-302.5C332.182,-302.5 441.193,-302.5 441.193,-302.5 447.193,-302.5 453.193,-308.5 453.193,-314.5 453.193,-314.5 453.193,-404.5 453.193,-404.5 453.193,-410.5 447.193,-416.5 441.193,-416.5 441.193,-416.5 332.182,-416.5 332.182,-416.5 326.182,-416.5 320.182,-410.5 320.182,-404.5 320.182,-404.5 320.182,-314.5 320.182,-314.5 320.182,-308.5 326.182,-302.5 332.182,-302.5"/>
<text text-anchor="middle" x="386.688" y="-401.3" font-family="Times,serif" font-size="14.00">Artist</text>
<polyline fill="none" stroke="black" points="320.182,-394.5 453.193,-394.5 "/>
<text text-anchor="start" x="328.182" y="-379.3" font-family="Times,serif" font-size="14.00">id :integer</text>
<text text-anchor="start" x="328.182" y="-365.3" font-family="Times,serif" font-size="14.00">firstname :string</text>
<text text-anchor="start" x="328.182" y="-351.3" font-family="Times,serif" font-size="14.00">lastname :string</text>
<text text-anchor="start" x="328.182" y="-337.3" font-family="Times,serif" font-size="14.00">aka :string</text>
<text text-anchor="start" x="328.182" y="-323.3" font-family="Times,serif" font-size="14.00">created_at :datetime</text>
<text text-anchor="start" x="328.182" y="-309.3" font-family="Times,serif" font-size="14.00">updated_at :datetime</text>
</g>
<!-- Album&#45;&gt;Artist -->
<g id="edge3" class="edge"><title>Album&#45;&gt;Artist</title>
<path fill="none" stroke="#7bd96f" d="M330.232,-444.886C334.467,-438.557 338.799,-432.081 343.089,-425.669"/>
<polygon fill="#7bd96f" stroke="#7bd96f" points="330.208,-444.922 320.907,-450.732 327.428,-449.078 324.648,-453.234 324.648,-453.234 324.648,-453.234 327.428,-449.078 328.388,-455.736 330.208,-444.922 330.208,-444.922"/>
<polygon fill="#7bd96f" stroke="#7bd96f" points="343.339,-425.295 352.639,-419.486 346.119,-421.14 348.899,-416.984 348.899,-416.984 348.899,-416.984 346.119,-421.14 345.159,-414.482 343.339,-425.295 343.339,-425.295"/>
</g>
<!-- Track -->
<g id="node5" class="node"><title>Track</title>
<path fill="none" stroke="black" d="M266.182,-137.5C266.182,-137.5 375.193,-137.5 375.193,-137.5 381.193,-137.5 387.193,-143.5 387.193,-149.5 387.193,-149.5 387.193,-253.5 387.193,-253.5 387.193,-259.5 381.193,-265.5 375.193,-265.5 375.193,-265.5 266.182,-265.5 266.182,-265.5 260.182,-265.5 254.182,-259.5 254.182,-253.5 254.182,-253.5 254.182,-149.5 254.182,-149.5 254.182,-143.5 260.182,-137.5 266.182,-137.5"/>
<text text-anchor="middle" x="320.688" y="-250.3" font-family="Times,serif" font-size="14.00">Track</text>
<polyline fill="none" stroke="black" points="254.182,-243.5 387.193,-243.5 "/>
<text text-anchor="start" x="262.182" y="-228.3" font-family="Times,serif" font-size="14.00">id :integer</text>
<text text-anchor="start" x="262.182" y="-214.3" font-family="Times,serif" font-size="14.00">title :string</text>
<text text-anchor="start" x="262.182" y="-200.3" font-family="Times,serif" font-size="14.00">year :integer</text>
<text text-anchor="start" x="262.182" y="-186.3" font-family="Times,serif" font-size="14.00">genre :string</text>
<text text-anchor="start" x="262.182" y="-172.3" font-family="Times,serif" font-size="14.00">created_at :datetime</text>
<text text-anchor="start" x="262.182" y="-158.3" font-family="Times,serif" font-size="14.00">updated_at :datetime</text>
<text text-anchor="start" x="262.182" y="-144.3" font-family="Times,serif" font-size="14.00">number :integer</text>
</g>
<!-- Album&#45;&gt;Track -->
<g id="edge2" class="edge"><title>Album&#45;&gt;Track</title>
<path fill="none" stroke="#2f144c" d="M297.202,-443.368C300.948,-403.436 306.046,-349.539 310.688,-302 311.521,-293.463 312.405,-284.515 313.29,-275.633"/>
<polygon fill="#2f144c" stroke="#2f144c" points="297.189,-443.509 291.776,-453.045 296.723,-448.487 296.256,-453.465 296.256,-453.465 296.256,-453.465 296.723,-448.487 300.736,-453.885 297.189,-443.509 297.189,-443.509"/>
<polygon fill="#2f144c" stroke="#2f144c" points="313.292,-275.609 318.763,-266.105 313.789,-270.633 314.286,-265.658 314.286,-265.658 314.286,-265.658 313.789,-270.633 309.808,-265.211 313.292,-275.609 313.292,-275.609"/>
</g>
<!-- Artist&#45;&gt;Track -->
<g id="edge5" class="edge"><title>Artist&#45;&gt;Track</title>
<path fill="none" stroke="#ab5f8a" d="M358.924,-292.876C356.417,-286.952 353.87,-280.93 351.34,-274.952"/>
<polygon fill="#ab5f8a" stroke="#ab5f8a" points="358.964,-292.971 358.716,-303.934 360.912,-297.576 362.86,-302.18 362.86,-302.18 362.86,-302.18 360.912,-297.576 367.005,-300.427 358.964,-292.971 358.964,-292.971"/>
<polygon fill="#ab5f8a" stroke="#ab5f8a" points="351.286,-274.824 351.534,-263.86 349.338,-270.219 347.39,-265.614 347.39,-265.614 347.39,-265.614 349.338,-270.219 343.245,-267.367 351.286,-274.824 351.286,-274.824"/>
</g>
<!-- TrackArtist -->
<g id="node6" class="node"><title>TrackArtist</title>
<path fill="none" stroke="black" d="M351.182,-0.5C351.182,-0.5 460.193,-0.5 460.193,-0.5 466.193,-0.5 472.193,-6.5 472.193,-12.5 472.193,-12.5 472.193,-88.5 472.193,-88.5 472.193,-94.5 466.193,-100.5 460.193,-100.5 460.193,-100.5 351.182,-100.5 351.182,-100.5 345.182,-100.5 339.182,-94.5 339.182,-88.5 339.182,-88.5 339.182,-12.5 339.182,-12.5 339.182,-6.5 345.182,-0.5 351.182,-0.5"/>
<text text-anchor="middle" x="405.688" y="-85.3" font-family="Times,serif" font-size="14.00">TrackArtist</text>
<polyline fill="none" stroke="black" points="339.182,-78.5 472.193,-78.5 "/>
<text text-anchor="start" x="347.182" y="-63.3" font-family="Times,serif" font-size="14.00">id :integer</text>
<text text-anchor="start" x="347.182" y="-49.3" font-family="Times,serif" font-size="14.00">track_id :integer</text>
<text text-anchor="start" x="347.182" y="-35.3" font-family="Times,serif" font-size="14.00">artist_id :integer</text>
<text text-anchor="start" x="347.182" y="-21.3" font-family="Times,serif" font-size="14.00">created_at :datetime</text>
<text text-anchor="start" x="347.182" y="-7.3" font-family="Times,serif" font-size="14.00">updated_at :datetime</text>
</g>
<!-- Artist&#45;&gt;TrackArtist -->
<g id="edge4" class="edge"><title>Artist&#45;&gt;TrackArtist</title>
<path fill="none" stroke="#cbe00f" d="M394.201,-294.089C395.139,-284.677 396.006,-275.094 396.688,-266 400.621,-213.525 402.953,-153.691 404.254,-110.574"/>
<ellipse fill="none" stroke="#cbe00f" cx="393.768" cy="-298.321" rx="4" ry="4"/>
<polygon fill="#cbe00f" stroke="#cbe00f" points="404.255,-110.535 409.045,-100.67 404.401,-105.537 404.547,-100.539 404.547,-100.539 404.547,-100.539 404.401,-105.537 400.049,-100.407 404.255,-110.535 404.255,-110.535"/>
</g>
<!-- Track&#45;&gt;AlbumTrack -->
<g id="edge6" class="edge"><title>Track&#45;&gt;AlbumTrack</title>
<path fill="none" stroke="#08c167" d="M284.787,-130.116C281.309,-123.297 277.808,-116.433 274.4,-109.751"/>
<ellipse fill="none" stroke="#08c167" cx="286.639" cy="-133.747" rx="4.00002" ry="4.00002"/>
<polygon fill="#08c167" stroke="#08c167" points="274.365,-109.684 273.83,-98.7307 272.093,-105.229 269.822,-100.775 269.822,-100.775 269.822,-100.775 272.093,-105.229 265.813,-102.82 274.365,-109.684 274.365,-109.684"/>
</g>
<!-- Track&#45;&gt;TrackArtist -->
<g id="edge7" class="edge"><title>Track&#45;&gt;TrackArtist</title>
<path fill="none" stroke="#7b60b8" d="M360.84,-130.116C364.729,-123.297 368.646,-116.433 372.457,-109.751"/>
<ellipse fill="none" stroke="#7b60b8" cx="358.717" cy="-133.836" rx="4.00002" ry="4.00002"/>
<polygon fill="#7b60b8" stroke="#7b60b8" points="372.622,-109.461 381.486,-103.005 375.1,-105.118 377.578,-100.775 377.578,-100.775 377.578,-100.775 375.1,-105.118 373.669,-98.5456 372.622,-109.461 372.622,-109.461"/>
</g>
</g>
</svg>
